<svg width="393.5199951171875px" height="208.79999389648438px" xmlns="http://www.w3.org/2000/svg" viewBox="53.24000244140626 -29.39999694824219 393.5199951171875 208.79999389648438" style="background: none;" preserveAspectRatio="xMidYMid"><defs><filter id="editing-extrusion" x="-100%" y="-100%" width="300%" height="300%"><feFlood result="color1" flood-color="#efefef"></feFlood><feConvolveMatrix order="6,6" divisor="1" kernelMatrix="1 0 0 0 0 0 0 1 0 0 0 0 0 0 1 0 0 0 0 0 0 1 0 0 0 0 0 0 1 0 0 0 0 0 0 1" in="SourceAlpha" result="extrude"></feConvolveMatrix><feComposite in="color1" in2="extrude" result="comp-extrude" operator="in"></feComposite><feOffset dx="3" dy="3" in="comp-extrude" result="offset-extrude"></feOffset><feMerge><feMergeNode in="offset-extrude"></feMergeNode><feMergeNode in="SourceGraphic"></feMergeNode></feMerge></filter></defs><g filter="url(#editing-extrusion)"><g transform="translate(111.02000141143799, 110.91500186920166)"><path d="M11.41-57.43L11.41-57.43L11.41-57.43Q16.73-62.55 30.65-62.55L30.65-62.55L30.65-62.55Q39.35-62.55 45.25-60.81L45.25-60.81L45.25-60.81Q51.14-59.07 54.09-57.14L54.09-57.14L54.09-57.14Q57.04-55.20 57.04-52.88L57.04-52.88L57.04-52.88Q57.04-47.57 44.67-42.35L44.67-42.35L44.67-42.35Q42.83-41.48 35.05-38.82L35.05-38.82L35.05-38.82Q27.26-36.16 24.56-35.19L24.56-35.19L24.56-35.19Q18.66-32.97 16.73-31.71L16.73-31.71L16.73-31.71Q16.73-31.23 17.11-30.89L17.11-30.89L17.11-30.89Q17.50-30.55 18.95-29.73L18.95-29.73L18.95-29.73Q20.40-28.91 23.30-27.41L23.30-27.41L23.30-27.41Q26.20-25.91 31.32-23.11L31.32-23.11L31.32-23.11Q46.60-14.79 62.75-5.32L62.75-5.32L62.75-5.32Q63.52-4.74 64.78-3.72L64.78-3.72L64.78-3.72Q66.03-2.71 66.03-1.50L66.03-1.50L66.03-1.50Q66.03-0.29 65.26 0.19L65.26 0.19L65.26 0.19Q64.49 0.68 63.42 0.92L63.42 0.92L63.42 0.92Q62.36 1.16 61.20 1.16L61.20 1.16L59.26 1.16L59.26 1.16Q57.33 1.16 51.19-3.00L51.19-3.00L51.19-3.00Q45.05-7.15 40.56-10.25L40.56-10.25L40.56-10.25Q36.06-13.34 31.42-16.24L31.42-16.24L31.42-16.24Q20.50-23.30 14.12-25.43L14.12-25.43L14.12-3.29L14.12-3.29Q14.12-1.35 10.83-1.35L10.83-1.35L9.76-1.35L9.76-1.35Q7.73-1.35 6.77-3.38L6.77-3.38L6.77-3.38Q5.41-6.48 5.41-14.79L5.41-14.79L5.70-34.22L5.70-34.22Q5.70-48.53 4.45-59.36L4.45-59.36L4.45-59.36Q6.77-63.33 10.15-59.07L10.15-59.07L10.15-59.07Q10.92-58.10 11.41-57.43ZM44.09-56.27L44.09-56.27L37.80-56.36L37.80-56.36Q15.95-56.36 12.67-51.34L12.67-51.34L12.67-51.34Q11.70-49.98 11.70-47.90L11.70-47.90L11.70-47.90Q11.70-45.83 11.89-44.28L11.89-44.28L11.89-44.28Q12.38-40.32 14.12-38.58L14.12-38.58L14.12-38.58Q14.41-38.48 15.13-38.48L15.13-38.48L15.13-38.48Q15.86-38.48 17.84-38.87L17.84-38.87L17.84-38.87Q19.82-39.25 23.15-40.27L23.15-40.27L23.15-40.27Q26.49-41.28 30.26-42.73L30.26-42.73L30.26-42.73Q34.03-44.18 37.51-45.73L37.51-45.73L37.51-45.73Q48.44-50.66 48.44-53.75L48.44-53.75L48.44-53.75Q48.44-55.49 44.09-56.27ZM75.02-16.24L75.02-16.24L75.02-16.24Q72.70-21.46 72.70-28.52L72.70-28.52L72.70-28.52Q72.70-35.58 74.98-41.04L74.98-41.04L74.98-41.04Q77.25-46.50 81.21-50.47L81.21-50.47L81.21-50.47Q89.62-58.68 102.29-58.68L102.29-58.68L102.29-58.68Q115.53-58.68 124.14-52.59L124.14-52.59L124.14-52.59Q133.80-45.63 133.80-32.68L133.80-32.68L133.80-32.68Q133.80-16.63 126.41-8.99L126.41-8.99L126.41-8.99Q119.01-1.35 103.35-1.35L103.35-1.35L103.35-1.35Q81.60-1.35 75.02-16.24ZM80.63-30.45L80.63-30.45L80.63-30.45Q80.63-7.64 103.64-7.64L103.64-7.64L103.64-7.64Q114.95-7.64 122.01-14.41L122.01-14.41L122.01-14.41Q129.07-21.08 129.07-31.90L129.07-31.90L129.07-31.90Q129.07-42.06 120.66-47.37L120.66-47.37L120.66-47.37Q113.50-52.01 102.58-52.01L102.58-52.01L102.58-52.01Q93.88-52.01 87.21-45.73L87.21-45.73L87.21-45.73Q80.63-39.45 80.63-30.45ZM151.88-27.26L151.88-27.26L151.88-27.26Q151.59-23.98 151.59-17.93L151.59-17.93L151.59-17.93Q151.59-11.89 153.43-3.29L153.43-3.29L145.79 0.58L142.31-25.72L142.31-25.72Q138.93-26.20 138.93-28.04L138.93-28.04L138.93-28.04Q138.93-29.39 140.52-31.23L140.52-31.23L140.52-31.23Q142.12-33.06 142.89-34.27L142.89-34.27L142.89-34.27Q143.67-35.48 143.81-36.98L143.81-36.98L143.81-36.98Q143.96-38.48 144.25-42.35L144.25-42.35L144.25-42.35Q144.54-46.21 144.78-50.56L144.78-50.56L144.78-50.56Q145.02-54.91 145.26-58.78L145.26-58.78L145.26-58.78Q145.50-62.65 145.50-64.20L145.50-64.20L145.50-64.20Q147.63-66.32 148.60-66.81L148.60-66.81L148.60-66.81Q151.01-68.06 151.88-65.84L151.88-65.84L151.30-35.38L151.30-35.38Q175.18-35.38 180.02-38.48L180.02-38.48L180.02-69.03L180.02-69.03Q180.60-70.67 185.43-70.67L185.43-70.67L185.43-70.67Q186.50-70.67 187.17-70.58L187.17-70.58L187.17-70.58Q187.17-68.74 187.32-65.02L187.32-65.02L187.32-65.02Q187.46-61.29 187.61-56.56L187.61-56.56L187.61-56.56Q187.75-51.82 187.95-46.55L187.95-46.55L187.95-46.55Q188.14-41.28 188.33-36.54L188.33-36.54L188.33-36.54Q188.62-26.68 188.82-22.04L188.82-22.04L188.82-22.04Q189.49-10.44 193.55-3.29L193.55-3.29L193.55-3.29Q189.20-1.55 183.98-1.55L183.98-1.55L183.98-1.55Q179.53-12.57 179.24-30.45L179.24-30.45L179.24-30.45Q172.86-30.65 170.54-30.65L170.54-30.65L170.54-30.65Q168.22-30.65 165.32-30.36L165.32-30.36L165.32-30.36Q159.33-29.97 151.88-27.26ZM206.99-54.62L206.99-1.55L206.99-1.55Q206.99 0.10 204.67 0.10L204.67 0.10L204.67 0.10Q202.93 0.10 200.51-1.55L200.51-1.55L200.51-1.55Q199.35-4.16 199.35-14.02L199.35-14.02L199.35-14.02Q199.35-23.88 199.55-30.31L199.55-30.31L199.55-30.31Q199.74-36.74 199.93-42.15L199.93-42.15L199.93-42.15Q200.51-53.95 200.51-54.62L200.51-54.62L200.51-54.62Q203.32-56.27 205.15-56.27L205.15-56.27L205.15-56.27Q206.99-56.27 206.99-54.62L206.99-54.62ZM259.20-47.47L259.20-47.47L250.59-47.66L250.59-47.66Q247.21-47.66 242.76-46.99L242.76-46.99L242.76-46.99Q242.57-43.22 241.99-37.22L241.99-37.22L241.99-37.22Q239.96-15.95 239.96-9.62L239.96-9.62L239.96-9.62Q239.96-3.29 240.15-0.68L240.15-0.68L231.06 0L234.06-47.76L213.47-48.92L213.47-48.92Q212.70-48.92 212.26-50.18L212.26-50.18L212.26-50.18Q211.83-51.43 211.83-52.50L211.83-52.50L211.83-52.50Q211.83-53.56 212.70-54.82L212.70-54.82L212.70-54.82Q213.57-56.07 214.73-56.07L214.73-56.07L214.73-56.07Q221.78-55.78 228.94-55.11L228.94-55.11L228.94-55.11Q242.18-53.95 251.46-53.95L251.46-53.95L257.46-54.14L257.46-54.14Q264.52-54.33 271.48-55.69L271.48-55.69L271.48-55.69Q273.02-55.40 273.41-50.85L273.41-50.85L273.41-50.85Q273.51-49.89 273.51-49.31L273.51-49.31L273.51-49.31Q267.13-47.47 259.20-47.47Z" fill="#ffffff"></path></g></g><style>text {
  font-size: 64px;
  font-family: Arial Black;
  dominant-baseline: central;
  text-anchor: middle;
}</style></svg>